<svg xmlns="http://www.w3.org/2000/svg" viewBox="0 0 204.89 266.82"><defs><style>.cls-1{fill:#fff;}</style></defs><title>Asset 1</title><g id="Layer_2" data-name="Layer 2"><g id="Layer_1-2" data-name="Layer 1"><path class="cls-1" d="M23.54,159.05c0-14.49,0-16.35-10-23l-3.34-2.23c-1.49-1.49-1.49-5.57.37-6.69,8.55-3,29.73-12.63,38.28-18.21,1.86,0,3.34.74,3.72,2.23C51.79,124.12,51,142,51,157.19v66.89c0,26.76.74,30.47,14.12,32.33l7.8,1.11c2.6,1.86,1.86,8.18-.74,9.29-11.15-.74-21.93-1.12-34.93-1.12-13.38,0-24.53.37-34.93,1.12-2.6-1.12-3.34-7.43-.74-9.29l7.8-1.11c13.75-1.86,14.12-5.57,14.12-32.33ZM54.39,53.14c0,13.38-9.29,19.32-19.7,19.32-11.52,0-19-8.55-19-18.58,0-12.26,8.92-20.07,20.07-20.07S54.39,42.74,54.39,53.14Z"/><path class="cls-1" d="M123.88,134.9c-6.32,0-6.32.74-6.32,10.78v78.41c0,26.76.74,31.22,14.12,32.33l13.38,1.11c2.6,1.86,1.86,8.18-.74,9.29-16.72-.74-27.5-1.12-40.51-1.12-13.38,0-24.53.37-35.67,1.12-2.6-1.12-3.34-7.43-.74-9.29l8.55-1.11c13.75-1.86,14.12-5.57,14.12-32.33V145.67c0-10,0-10.78-7.43-10.78h-13c-2.23-1.49-2.6-4.83-1.12-7.06l16-7.8c3-1.49,5.57-3.72,5.57-7.43,0-21.55,2.6-44.59,11.52-65.4C110.87,26,131.68,0,168.47,0c19.7,0,36.42,8.92,36.42,22.3,0,7.43-7.06,13.38-14.12,13.38-4.09,0-6.32-1.49-8.92-4.46-7.06-8.18-17.47-16.35-29.73-16.35-11.52,0-20.81,7.06-26.38,20.44-6.69,17.09-8.18,44.22-8.18,62.8v10.78c0,10,0,10.4,6.32,10.4h42.36c4.09,3.72,1.49,14.12-2.6,15.61Z"/></g></g></svg>